<svg xmlns="http://www.w3.org/2000/svg" viewBox="0 0 512 512" width="512" height="512">
  <defs>
    <linearGradient id="gradient" x1="0%" y1="0%" x2="100%" y2="100%">
      <stop offset="0%" stop-color="#4f46e5" />
      <stop offset="100%" stop-color="#4338ca" />
    </linearGradient>
  </defs>
  <rect width="512" height="512" rx="128" fill="url(#gradient)" />
  <path d="M160 144h48v32h-48v48h-32v-48a32 32 0 0 1 32-32zm192 0a32 32 0 0 1 32 32v48h-32v-48h-48v-32h48zm-192 224a32 32 0 0 1-32-32v-48h32v48h48v32h-48zm192 0h-48v-32h48v-48h32v48a32 32 0 0 1-32 32z" fill="#ffffff" opacity="0.9" />
  <circle cx="256" cy="256" r="64" fill="#ffffff" />
  <path d="M256 180v152M180 256h152" stroke="#ffffff" stroke-width="8" stroke-dasharray="12 12" fill="none" opacity="0.6" />
</svg>
